HIERARCHY
ROOT Hips
{
	OFFSET 0.000000 0.000000 0.000000
	CHANNELS 6 Xposition Yposition Zposition Zrotation Yrotation Xrotation 
	JOINT LHipJoint
	{
		OFFSET 0.000000 0.000000 0.000000
		CHANNELS 3 Zrotation Yrotation Xrotation
		JOINT LeftUpLeg
		{
			OFFSET 1.363060 -1.794630 0.839290
			CHANNELS 3 Zrotation Yrotation Xrotation
			JOINT LeftLeg
			{
				OFFSET 2.448110 -6.726130 0.000000
				CHANNELS 3 Zrotation Yrotation Xrotation
				JOINT LeftFoot
				{
					OFFSET 2.562200 -7.039590 0.000000
					CHANNELS 3 Zrotation Yrotation Xrotation
					JOINT LeftToeBase
					{
						OFFSET 0.157640 -0.433110 2.322550
						CHANNELS 3 Zrotation Yrotation Xrotation
						End Site
						{
							OFFSET 0.000000 0.000000 0.000000
						}
					}
				}
			}
		}
	}
	JOINT RHipJoint
	{
		OFFSET 0.000000 0.000000 0.000000
		CHANNELS 3 Zrotation Yrotation Xrotation
		JOINT RightUpLeg
		{
			OFFSET -1.305520 -1.794630 0.839290
			CHANNELS 3 Zrotation Yrotation Xrotation
			JOINT RightLeg
			{
				OFFSET -2.542530 -6.985550 0.000000
				CHANNELS 3 Zrotation Yrotation Xrotation
				JOINT RightFoot
				{
					OFFSET -2.568260 -7.056230 0.000000
					CHANNELS 3 Zrotation Yrotation Xrotation
					JOINT RightToeBase
					{
						OFFSET -0.164730 -0.452590 2.363150
						CHANNELS 3 Zrotation Yrotation Xrotation
						End Site
						{
							OFFSET 0.000000 0.000000 0.000000
						}
					}
				}
			}
		}
	}
}
MOTION
Frames: 27
Frame Time: 0.008333
1.399773 16.606642 -0.408957 -3.627319 80.196634 -0.076931 -9.921842 1.140310 0.613571 -20.448361 12.276248 -36.434647 -2.284143 0.800608 29.608443 2.904851 13.998625 -14.164631 178.500900 -0.000000 -6.039700 10.882013 -4.146703 -1.265761 -8.388344 -17.222520 -0.132125 -0.067451 -2.860261 40.356955 -0.166416 16.362772 24.561185 8.589900 0.000000 -94.274100
1.563544 16.532101 -0.443149 -2.058701 80.115897 1.281476 -9.935697 1.165785 0.389496 -20.853177 12.647740 -37.014628 -2.244265 1.039073 32.354801 2.864694 13.669145 -15.071370 178.254100 0.000000 -6.574300 11.023739 -3.963195 -1.334021 -9.322651 -17.435120 -1.692092 -0.300550 -3.002479 44.012733 -0.440480 15.011478 26.471552 8.465500 -0.000000 -92.441200
1.721730 16.456480 -0.477773 -0.450181 80.040937 2.701045 -9.937555 1.180849 0.164817 -21.271550 12.943415 -37.484543 -2.206793 1.251362 34.919323 2.842096 13.381568 -16.134165 177.973300 -0.000001 -7.006999 11.161483 -3.748203 -1.409932 -10.165908 -17.533447 -3.324745 -0.517244 -3.155167 47.734249 -0.733599 12.845890 28.022848 7.730601 0.000000 -89.368100
1.874776 16.381401 -0.513182 1.171414 79.979436 4.156777 -9.925635 1.188706 -0.054704 -21.703115 13.141025 -37.813415 -2.172380 1.435029 37.253838 2.844858 13.179632 -17.330801 177.658300 -0.000000 -7.345600 11.296644 -3.510236 -1.491382 -10.910158 -17.514334 -5.016937 -0.719829 -3.325599 51.478502 -1.037774 9.974093 29.049098 6.405000 0.000000 -85.131200
2.023495 16.308624 -0.549707 2.788850 79.937279 5.636433 -9.898686 1.193187 -0.262068 -22.149285 13.222776 -37.985296 -2.141699 1.589270 39.323639 2.878474 13.096388 -18.629772 177.307700 0.000000 -7.608000 11.430584 -3.259824 -1.573817 -11.549266 -17.376413 -6.762100 -0.915241 -3.518853 55.194634 -1.342173 6.606586 29.419489 4.631201 -0.000000 -79.999400
2.168786 16.240107 -0.587693 4.367084 79.919200 7.110667 -9.857467 1.197202 -0.450769 -22.605157 13.180530 -37.996919 -2.114839 1.714567 41.106997 2.944967 13.149583 -19.989793 176.921200 0.000001 -7.820300 11.563275 -3.008691 -1.650374 -12.070359 -17.112632 -8.554930 -1.112814 -3.735737 58.824039 -1.633453 3.027494 29.073665 2.646000 0.000001 -74.360899
2.311754 16.177804 -0.627408 5.880178 79.930055 8.562186 -9.803310 1.203195 -0.614258 -23.067240 13.011585 -37.858482 -2.091545 1.812313 42.594332 3.043160 13.341536 -21.363425 176.500800 -0.000000 -8.005700 11.694288 -2.767030 -1.712502 -12.462895 -16.717911 -10.395319 -1.320626 -3.971932 62.309431 -1.897530 -0.458051 28.035972 0.717300 0.000000 -68.626600
2.453464 16.123449 -0.668983 7.308369 79.975577 9.981114 -9.738070 1.212579 -0.747255 -23.530857 12.720107 -37.589219 -2.071376 1.884369 43.785762 3.168456 13.657960 -22.700899 176.053800 -0.000000 -8.189300 11.822613 -2.542354 -1.751207 -12.718177 -16.188845 -12.284408 -1.542537 -4.218814 65.597787 -2.121271 -3.585492 26.399434 -0.928800 -0.000000 -63.111300
2.594828 16.078583 -0.712454 8.623780 80.063575 11.346751 -9.665031 1.225551 -0.847181 -23.986105 12.321544 -37.212532 -2.054012 1.932858 44.690077 3.312324 14.065749 -23.953548 175.594499 0.000000 -8.383500 11.945866 -2.339711 -1.758594 -12.828080 -15.524432 -14.217853 -1.776819 -4.465079 68.641146 -2.294100 -6.172373 24.297812 -2.153700 0.000000 -58.033600
2.736672 16.044477 -0.757658 9.818882 80.204261 12.657392 -9.586883 1.241886 -0.913515 -24.424262 11.835822 -36.751001 -2.039759 1.959553 45.318419 3.464007 14.519720 -25.078623 175.143900 0.000000 -8.592800 12.061762 -2.161175 -1.729034 -12.793358 -14.730852 -16.186494 -2.016358 -4.699506 71.397703 -2.407938 -8.118769 21.871743 -2.910600 0.000000 -53.460400
2.879523 16.021937 -0.804385 10.890661 80.410004 13.911669 -9.506619 1.261113 -0.948877 -24.834578 11.290282 -36.221780 -2.029779 1.966022 45.683831 3.610768 14.963554 -26.042373 174.728500 0.000000 -8.806400 12.167489 -2.006862 -1.660059 -12.619862 -13.819356 -18.171892 -2.249944 -4.912316 73.829085 -2.457945 -9.397642 19.255143 -3.228999 0.000000 -49.400400
3.023717 16.011480 -0.852387 11.853928 80.694712 15.121681 -9.426532 1.282778 -0.958312 -25.206522 10.715378 -35.634027 -2.026126 1.953308 45.797259 3.739804 15.338182 -26.822962 174.376500 -0.000000 -9.005700 12.260591 -1.875180 -1.552380 -12.321898 -12.806795 -20.147043 -2.464107 -5.096329 75.900174 -2.443114 -10.036596 16.569480 -3.189099 0.000000 -45.839800
3.169418 16.013187 -0.901429 12.735718 81.073127 16.307787 -9.348153 1.306753 -0.948312 -25.531393 10.141100 -34.987138 -2.031450 1.921880 45.664993 3.839618 15.588513 -27.409856 174.113800 -0.000000 -9.162200 12.338885 -1.763224 -1.409586 -11.918226 -11.715118 -22.079650 -2.645096 -5.247006 77.579396 -2.367434 -10.106414 13.927556 -2.898400 0.000000 -42.778200
3.316553 16.026718 -0.951372 13.578159 81.558373 17.502044 -9.272126 1.333222 -0.926491 -25.802232 9.595124 -34.272727 -2.048723 1.872044 45.290894 3.901315 15.669655 -27.805704 173.958900 0.000000 -9.256500 12.400728 -1.666472 -1.237946 -11.430605 -10.570175 -23.935716 -2.781311 -5.362183 78.842340 -2.240925 -9.713860 11.435173 -2.470200 0.000001 -40.272400
3.465081 16.051499 -1.002239 14.429993 82.161187 18.741001 -9.198644 1.362728 -0.899111 -26.012691 9.098730 -33.475170 -2.080491 1.803649 44.673748 3.919257 15.552267 -28.020167 173.921500 -0.000000 -9.266900 12.444665 -1.579842 -1.044704 -10.878078 -9.399476 -25.682940 -2.865014 -5.441013 79.671994 -2.079625 -8.995106 9.187564 -2.005201 0.000000 -38.413199
3.614861 16.086654 -1.054286 15.348675 82.888574 20.067836 -9.127720 1.395948 -0.870778 -26.156590 8.665387 -32.576015 -2.128519 1.716617 43.810616 3.891348 15.225003 -28.068332 174.000700 -0.000000 -9.180101 12.469476 -1.497570 -0.838176 -10.275041 -8.230827 -27.293747 -2.893699 -5.483561 80.063413 -1.903675 -8.103901 7.255716 -1.577399 -0.000000 -37.274200
3.765752 16.131085 -1.107919 16.399108 83.741773 21.533809 -9.059714 1.433872 -0.843640 -26.227015 8.299895 -31.557372 -2.193436 1.611252 42.699485 3.818923 14.694985 -27.967671 174.187000 -0.000000 -8.989100 12.473974 -1.413705 -0.626809 -9.629763 -7.089041 -28.747744 -2.869856 -5.490223 80.024738 -1.733938 -7.196131 5.668515 -1.229000 0.000000 -36.822900
3.917720 16.183724 -1.163736 17.662044 84.717635 23.205235 -8.995955 1.477580 -0.816327 -26.213759 7.997828 -30.403118 -2.274299 1.488066 41.338650 3.705932 13.985744 -27.732222 174.464099 0.000000 -8.693300 12.456843 -1.323552 -0.417896 -8.941845 -5.992377 -30.028973 -2.799290 -5.461210 79.573919 -1.588785 -6.414179 4.407937 -0.975300 -0.000000 -36.892700
4.070723 16.243164 -1.222462 19.271699 85.806803 25.207721 -8.937892 1.528039 -0.785911 -26.106891 7.743777 -29.107659 -2.368836 1.348740 39.735106 3.558834 13.134131 -27.376571 174.811200 0.000001 -8.298400 12.417294 -1.221750 -0.218484 -8.207764 -4.951316 -31.130845 -2.689837 -5.396915 78.740285 -1.481735 -5.871575 3.413365 -0.814900 0.000001 -37.217100
4.224815 16.308241 -1.284771 21.503209 86.995368 27.809635 -8.886892 1.587280 -0.746324 -25.893358 7.514263 -27.672104 -2.473219 1.195642 37.899588 3.385387 12.186847 -26.908955 175.206500 -0.000000 -7.813599 12.355568 -1.103308 -0.032337 -7.418787 -3.964581 -32.049973 -2.549481 -5.296528 77.553427 -1.421584 -5.647830 2.604475 -0.738700 0.000000 -37.540100
4.380059 16.377723 -1.351337 25.137570 88.259258 31.790860 -8.840005 1.662123 -0.690463 -25.560549 7.279029 -26.112255 -2.583584 1.034045 35.851905 3.194256 11.196011 -26.335735 175.628400 0.000000 -7.251600 12.276447 -0.957143 0.139093 -6.564639 -3.017950 -32.789771 -2.386627 -5.156462 76.042509 -1.413110 -5.784918 1.899200 -0.735000 0.000000 -37.679100
4.536488 16.450543 -1.422551 33.583662 89.517940 40.562125 -8.779346 1.789939 -0.608064 -25.095194 7.014086 -24.467461 -2.704253 0.881904 33.611414 2.994865 10.219960 -25.665499 176.057900 -0.000000 -6.627600 12.199583 -0.737612 0.297501 -5.632504 -2.066518 -33.354295 -2.214540 -4.955645 74.238464 -1.458010 -6.288185 1.224701 -0.789700 -0.000001 -37.512700
4.694131 16.525613 -1.498590 86.408791 89.826232 93.690359 -9.051742 2.162836 -0.429585 -24.649481 6.752138 -22.891867 -2.918868 0.849371 31.073576 2.787927 9.391409 -24.906309 176.479000 0.000000 -5.957500 11.812795 -0.205906 0.399229 -4.786441 -0.911024 -33.739285 -2.101590 -4.487807 72.253165 -1.551826 -7.112237 0.527396 -0.886201 -0.000000 -36.969800
4.852951 16.602109 -1.579284 176.446185 87.236825 -175.943110 -9.546927 1.613864 -0.307622 -24.064754 6.043464 -20.814243 -2.801838 0.433799 28.754859 2.565357 8.427334 -23.913147 176.881100 -0.000000 -5.254600 11.191051 -0.748904 0.511604 -3.916036 -0.507402 -34.079365 -1.787754 -4.575673 69.752865 -1.701653 -8.238926 -0.215315 -1.006000 -0.000001 -36.024400
5.012802 16.679160 -1.664029 -171.956801 85.520601 -164.035819 -9.482583 1.632447 -0.141012 -23.198513 5.393899 -18.974886 -2.817243 0.226846 26.292052 2.374380 7.651872 -22.920118 177.258100 -0.000000 -4.527400 11.092243 -0.629764 0.663008 -2.775717 0.336707 -34.229790 -1.561054 -4.374328 67.076646 -1.899492 -9.583293 -1.006996 -1.131500 0.000000 -34.693100
5.173553 16.755996 -1.752002 -168.078681 83.797090 -159.841376 -9.586398 1.658052 0.080033 -22.291957 4.604990 -17.174628 -2.811262 0.042595 23.805872 2.187532 6.997318 -21.817670 177.609800 0.000000 -3.776399 10.834045 -0.499313 0.801345 -1.673061 1.209183 -34.267002 -1.341662 -4.114510 64.154411 -2.136568 -11.048003 -1.810192 -1.251200 0.000000 -33.060400
5.334936 16.831834 -1.841936 -166.243198 81.996799 -157.681149 -9.756558 1.674536 0.338380 -21.333996 3.679237 -15.423761 -2.771308 -0.127096 21.369453 2.006790 6.435634 -20.610118 177.938800 -0.000000 -2.990700 10.510514 -0.388488 0.942888 -0.595905 2.081571 -34.207154 -1.123728 -3.833714 60.978133 -2.403640 -12.547728 -2.565222 -1.364100 0.000001 -31.309700
